<?xml version="1.0" encoding="iso-8859-1"?>
<!-- Generator: Adobe Illustrator 18.0.0, SVG Export Plug-In . SVG Version: 6.00 Build 0)  -->
<!DOCTYPE svg PUBLIC "-//W3C//DTD SVG 1.1//EN" "http://www.w3.org/Graphics/SVG/1.1/DTD/svg11.dtd">
<svg version="1.1" id="Capa_1" xmlns="http://www.w3.org/2000/svg" xmlns:xlink="http://www.w3.org/1999/xlink" x="0px" y="0px"
	 viewBox="0 0 512 512" style="enable-background:new 0 0 512 512;" xml:space="preserve">
<g>
	<path d="M179.328,263.383l-11.434-34.293c1.348-1.527,2.543-3.172,3.586-4.938c0.168-0.281,0.305-0.578,0.469-0.863
		c0.77-1.402,1.453-2.836,2.008-4.354c0.102-0.273,0.273-0.518,0.367-0.795l35.57-7.281c8.648-1.766,14.23-10.211,12.473-18.859
		c-3.418-16.797-12.223-31.883-25.469-43.648c-3.172-2.82-7.367-4.336-11.574-4c-4.238,0.25-8.203,2.18-11.02,5.352l-23.883,26.945
		c-1.93-0.395-3.93-0.574-5.969-0.602c-0.223-0.004-0.445-0.027-0.668-0.025c-2.113,0.014-4.188,0.217-6.188,0.623l-24.07-27.145
		c-5.852-6.602-15.953-7.203-22.574-1.367c-12.836,11.367-21.5,26.531-25.055,43.875c-0.852,4.156-0.016,8.484,2.32,12.023
		c2.34,3.539,5.988,6.008,10.145,6.859l35.309,7.234c0.094,0.277,0.262,0.52,0.367,0.793c0.551,1.52,1.238,2.953,2.008,4.355
		c0.16,0.289,0.297,0.582,0.469,0.867c1.039,1.766,2.227,3.406,3.578,4.934l-11.523,34.566c-2.789,8.375,1.73,17.43,10.105,20.227
		c8.008,2.68,16.313,4.023,24.684,4.023c8.625,0,17.324-1.422,25.848-4.266C177.59,280.828,182.121,271.766,179.328,263.383z"/>
	<path d="M409.324,144.352c-4.238,0.25-8.203,2.18-11.02,5.352l-23.883,26.945c-1.93-0.395-3.93-0.574-5.969-0.602
		c-0.223-0.004-0.445-0.027-0.668-0.025c-2.113,0.014-4.188,0.217-6.188,0.623l-24.07-27.145
		c-5.852-6.602-15.953-7.203-22.574-1.367c-12.836,11.367-21.5,26.531-25.055,43.875c-0.852,4.156-0.016,8.484,2.32,12.023
		c2.34,3.539,5.988,6.008,10.145,6.859l35.309,7.234c0.094,0.277,0.262,0.52,0.367,0.793c0.551,1.52,1.238,2.953,2.008,4.355
		c0.16,0.289,0.297,0.582,0.469,0.867c1.039,1.766,2.227,3.406,3.578,4.934l-11.523,34.566c-2.789,8.375,1.73,17.43,10.105,20.227
		c8.008,2.68,16.313,4.023,24.684,4.023c8.625,0,17.324-1.422,25.848-4.266c8.383-2.797,12.914-11.859,10.121-20.242l-11.434-34.293
		c1.348-1.527,2.543-3.172,3.586-4.938c0.168-0.281,0.305-0.578,0.469-0.863c0.77-1.402,1.453-2.836,2.008-4.354
		c0.102-0.273,0.273-0.518,0.367-0.795l35.57-7.281c8.648-1.766,14.23-10.211,12.473-18.859
		c-3.418-16.797-12.223-31.883-25.469-43.648C417.727,145.531,413.543,144.016,409.324,144.352z"/>
	<path d="M480,48H32C14.328,48,0,62.326,0,80v352c0,17.672,14.328,32,32,32h448c17.672,0,32-14.328,32-32V80
		C512,62.326,497.672,48,480,48z M48,208c0-53.02,42.98-96,96-96s96,42.98,96,96s-42.98,96-96,96S48,261.02,48,208z M160,400H96v-64
		h64V400z M304,400h-96v-64h96V400z M416,400h-64v-64h64V400z M368,304c-53.02,0-96-42.98-96-96s42.98-96,96-96s96,42.98,96,96
		S421.02,304,368,304z"/>
</g>
<g>
</g>
<g>
</g>
<g>
</g>
<g>
</g>
<g>
</g>
<g>
</g>
<g>
</g>
<g>
</g>
<g>
</g>
<g>
</g>
<g>
</g>
<g>
</g>
<g>
</g>
<g>
</g>
<g>
</g>
</svg>
