<?xml version="1.0"?>
<svg width="512" height="512" xmlns="http://www.w3.org/2000/svg" xmlns:svg="http://www.w3.org/2000/svg">

 <metadata id="metadata3838">image/svg+xml</metadata>
 <g>
  <title>Layer 1</title>
  <g stroke="null" id="layer1">
   <g stroke="null" id="g3177">
    <path stroke="null" fill="#ffffff" fill-opacity="0" fill-rule="nonzero" d="m79.31108,-33.226674c-1.885635,0.092346 -3.688274,0.187863 -5.781083,0.283031c-21.762886,0.989621 -39.836549,5.185042 -57.448449,13.337492c-13.904594,6.436369 -22.945516,12.503255 -34.514854,23.172571c-19.39787,17.888985 -31.01942,38.309321 -36.899791,64.847841c-1.408421,6.356216 -1.948186,10.825276 -2.423172,19.81168c-0.109711,2.084502 -0.218911,3.869751 -0.324276,5.731224l0,325.778159c1.070922,16.913114 2.991224,26.784793 7.612812,39.782526c7.909069,22.243754 21.530216,41.021706 40.143253,55.366531c24.604837,18.962666 50.524517,27.826819 87.212411,29.841373c0.355594,0.020321 0.520064,0.034996 0.839578,0.054188l351.826243,0c0.321012,-0.018063 0.481951,-0.033868 0.839505,-0.054188c30.609068,-1.680621 53.474621,-8.184544 74.753547,-21.262272c27.826868,-17.101644 46.909193,-42.158357 55.273363,-72.595551c3.058633,-11.130468 4.047789,-17.485691 4.88436,-31.221058c0.02825,-0.462586 0.050046,-0.695493 0.076347,-1.09671l0,-324.681437c-0.004871,-0.142695 -0.013394,-0.262778 -0.018996,-0.406851c-0.666914,-16.778785 -2.624135,-27.293676 -7.784453,-41.887518c-11.153834,-31.544426 -34.950898,-56.835987 -67.255305,-71.481218c-18.061218,-8.188089 -34.786855,-11.951146 -59.43269,-13.319813l-351.57823,0l-0.000122,0z" id="rect3149"/>
    <g stroke="null" id="g3154" transform="matrix(1.1453324570111787,0,0,1.0618599607154795,-181.1914930563471,424.60458414303264) ">
     <path stroke="null" fill="#4c516d" fill-rule="nonzero" id="path3202-6-1-7-48-5-2-3" d="m292.000769,-388.095101c-25.90818,0 -46.91973,20.99552 -46.91973,46.90317c0,25.90818 21.01155,46.92026 46.91973,46.92026c25.90819,0 46.90317,-21.01208 46.90317,-46.92026c0,-25.90765 -20.99498,-46.90317 -46.90317,-46.90317zm18.22355,58.3454c7.98557,0 14.46542,6.47985 14.46542,14.46488c0,7.98503 -6.47985,14.46542 -14.46542,14.46542c-7.98503,0 -14.46541,-6.48039 -14.46541,-14.46542c0,-7.98503 6.48038,-14.46488 14.46541,-14.46488zm69.50274,3.47431c-7.72793,0 -15.34736,0.47144 -22.83315,1.36941c-7.61248,28.63846 -35.81424,51.17656 -65.86167,50.6784c-11.24126,-0.11492 -22.05758,-3.42941 -31.5697,-9.03694c-32.81083,17.34321 -73.58959,64.22446 -86.67384,115.48761l18.9585,5.94641c-1.09521,8.24641 -1.67034,16.65905 -1.67034,25.20531c0,53.13874 21.86516,101.18362 57.0754,135.61508l65.07647,-45.65027c-17.58909,-22.93845 -28.49628,-54.77541 -28.49628,-89.96481c0,-69.88384 58.15405,-120.75793 95.99461,-126.52843c37.84056,-5.77056 31.71081,-4.10797 64.58793,-4.3656l24.09032,-36.80816c-26.46194,-14.02178 -56.64459,-21.94801 -88.67825,-21.94801z"/>
     <path stroke="null" fill="#ffffff" fill-rule="nonzero" id="path4201-82-2-2-12" d="m337.009639,-157.185611c-12.15581,0.81352 -20.73093,13.22428 -20.22796,24.85466c-1.87613,14.53758 3.48767,30.06667 -2.9227,43.89655c-11.53951,20.05799 -31.28107,35.32891 -38.10247,58.0557c-4.90893,18.01348 -1.44959,37.84323 7.61836,53.8908c8.05505,9.16469 21.2168,9.7457 32.20203,12.94634c46.65034,9.8804 97.63341,2.6378 137.77182,-23.65309c8.57085,-7.334 8.6676,-19.61915 8.5019,-30.03299c-0.68738,-32.62055 -11.2637,-64.03311 -24.60184,-93.49471c-5.59791,-10.65811 -12.96024,-21.78712 -24.48907,-26.66933c-12.13549,-3.38344 -24.90598,6.82782 -26.18399,18.9553c-1.18607,4.48666 -1.88895,9.11925 -2.62978,13.73314c-10.41224,-17.25235 -18.26203,-37.31408 -35.26049,-49.1914c-3.53791,-2.02686 -7.54406,-3.44865 -11.67581,-3.29097z"/>
     <path stroke="null" fill="#c40001" fill-rule="nonzero" id="path3206-1-5-9-45-7-1-3" d="m367.769559,-98.741871c-43.65014,-78.92666 -32.00479,-26.41169 -34.07655,5.43863c-1.39454,21.44076 -43.09318,51.92915 -43.09318,75.74313c0,10.90292 2.0493,21.29324 5.75505,30.79146c17.73127,6.56751 37.93838,10.29304 59.38983,10.29304c33.9317,0 64.75576,-9.31061 87.57288,-24.47784c1.05993,-5.36273 1.62224,-10.91253 1.62224,-16.60666c0,-26.24492 -17.23899,-87.91764 -35.60578,-102.75775c-13.00942,-10.51111 -3.72446,89.99635 -41.56449,21.57599z"/>
     <path stroke="null" fill="#ffffff" fill-rule="nonzero" id="path4203-5-6-6-3" d="m499.800759,-295.188881c-30.56857,-0.271 -57.97765,24.87017 -62.58726,54.58673c-3.48072,22.20457 6.242,45.42097 23.53497,59.34706c4.64648,3.81373 9.82267,6.98871 15.35056,9.37048c-6.88341,1.19944 -13.77483,2.35077 -20.67908,3.4246c8.27901,39.39705 1.06313,83.11935 -24.50778,114.94509c-13.54125,16.83863 -35.26957,28.4626 -57.2721,25.93117c-7.8065,-2.88582 -18.71957,-1.27 -22.4777,6.99725c-11.76401,26.98469 -24.13255,53.7529 -36.31829,80.57883c46.93096,15.16883 99.292,13.30286 144.8188,-5.76254c-8.13416,-16.76754 -3.55662,-37.77535 8.37575,-51.70786c10.65544,-13.02973 28.24613,-19.52561 44.80789,-16.82634c6.74711,0.85414 13.14678,3.34068 19.17551,6.26391c5.74383,2.28663 11.41658,-1.68745 14.66532,-6.1971c11.46362,-16.4431 21.26598,-34.09472 27.82921,-53.09171c12.78492,-35.8276 15.84552,-75.49618 6.89731,-112.5895c-3.96873,-7.67876 -14.17624,-9.38865 -21.77482,-6.64769c-5.11846,0.79054 -10.215,1.71738 -15.32331,2.57206c17.99906,-16.1395 25.46828,-43.23163 17.62169,-66.29569c-6.58996,-21.22321 -24.62804,-38.59743 -46.55199,-43.21184c-5.0773,-1.23472 -10.33366,-1.80718 -15.58468,-1.68691z"/>
     <path stroke="null" fill="#a9ba9d" fill-rule="nonzero" id="path3128-5-2-3-1-1-8-4" d="m500.843589,-278.014041c-25.90765,0 -46.91974,20.99498 -46.91974,46.90316c0,25.90819 21.01209,46.91974 46.91974,46.91974c25.90818,0 46.90317,-21.01155 46.90317,-46.91974c0,-25.90818 -20.99499,-46.90316 -46.90317,-46.90316zm65.51103,107.4363l-91.56835,16.28596c0.61255,5.7743 0.9354,11.67474 0.9354,17.67193c0,69.88385 -42.97934,126.54501 -95.99408,126.54501c-4.70367,0 -9.32504,-0.44097 -13.84752,-1.3026l-27.05952,59.99863c13.17725,2.89704 26.85961,4.4097 40.90704,4.4097c20.70474,0 40.62803,-3.30487 59.28026,-9.43783c-0.016,-0.11652 -0.0321,-0.23358 -0.0481,-0.35063c-5.61662,-37.45625 27.08945,-75.34065 64.95941,-75.14876c3.8474,-0.0668 7.70976,0.13523 11.50852,0.70181c6.39753,0.8039 12.51338,2.6811 18.20697,5.4119c22.4852,-31.17363 35.74529,-69.45409 35.74529,-110.82723c0,-11.59136 -1.03213,-22.94059 -3.02317,-33.95789l-0.00215,0z"/>
    </g>
   </g>
  </g>
 </g>
</svg>